<svg xmlns="http://www.w3.org/2000/svg" viewBox="0 0 1220 209" width="1220" height="209">
  <title>Codebarz</title>
  <path d="M 448 38.061 L 448 74.170 443.250 69.980 C 427.008 55.651, 398.198 52.636, 375.570 62.896 C 361.800 69.139, 351.468 78.447, 330.498 103.500 C 311.442 126.266, 312.440 125.487, 311.676 118.173 C 307.648 79.635, 269.255 50.962, 228.183 55.819 C 202.256 58.884, 185.314 70.209, 164.332 98.500 C 139.706 131.703, 132.840 140.195, 121.010 152.081 C 110.004 163.138, 107.421 165.190, 99.680 169.026 C 88.314 174.658, 77.348 175.649, 66.168 172.054 C 36.541 162.528, 27.314 124.395, 48.919 100.774 C 65.335 82.827, 93.258 82.558, 111.599 100.171 L 118.088 106.401 129.738 94.751 L 141.388 83.101 133.944 75.787 C 125.093 67.091, 111.877 59.892, 100 57.299 C 89.148 54.930, 69.780 55.185, 59.856 57.828 C 15.635 69.605, -8.340 114.983, 6.902 158.055 C 14.911 180.688, 33.483 197.882, 56.713 204.171 C 67.848 207.186, 86.424 207.177, 97.471 204.152 C 117.211 198.746, 137.451 183.781, 157.629 159.673 L 161.669 154.846 163.456 159.673 C 168.088 172.188, 179.918 186.498, 192.029 194.239 C 212.641 207.411, 238.334 209.452, 263.139 199.886 C 285.377 191.310, 312.789 167.944, 351.337 124.704 C 372.535 100.926, 376.106 97.551, 384.414 93.445 C 401.970 84.769, 419.980 87.266, 432.879 100.165 C 454.266 121.552, 448.076 156.567, 420.521 170.078 C 413.803 173.372, 413.111 173.500, 402.021 173.500 C 391.147 173.500, 390.123 173.321, 383.783 170.318 C 377.199 167.199, 367.952 159.184, 363.227 152.500 L 361.106 149.500 350.053 160.483 C 343.974 166.524, 339 171.938, 339 172.516 C 339 174.745, 350.463 187.228, 356.333 191.391 C 369.175 200.498, 380.200 204.671, 394.034 205.659 C 410.206 206.815, 428.586 200.976, 441.253 190.658 C 444.399 188.096, 447.203 186, 447.486 186 C 447.769 186, 448 190.050, 448 195 L 448 204 464.420 204 L 480.841 204 481.435 197.750 C 481.761 194.313, 481.909 148.975, 481.764 97 L 481.500 2.500 464.750 2.226 L 448 1.952 448 38.061 M 664.765 79.750 C 664.636 122.513, 664.524 167.850, 664.515 180.500 L 664.500 203.500 680.611 203.774 L 696.722 204.048 697.361 199.385 C 697.712 196.820, 698 193.209, 698 191.360 C 698 187.664, 699.025 187.110, 701.128 189.672 C 703.931 193.089, 717.469 201.066, 723.877 203.077 C 727.574 204.237, 734.725 205.402, 740.063 205.713 C 774.481 207.719, 803.677 187.696, 815.058 154.282 C 818.183 145.107, 818.390 143.662, 818.399 131 C 818.413 111.272, 814.052 97.773, 802.683 82.349 C 779.940 51.492, 732.462 45.928, 705.681 70.979 L 699 77.229 699 39.615 L 699 2 682 2 L 665 2 664.765 79.750 M 888 55.612 C 866.903 58.192, 850.248 66.798, 839.091 80.885 L 836.149 84.600 846.974 92.800 C 852.928 97.310, 858.199 101, 858.687 101 C 859.176 101, 861.808 98.694, 864.538 95.875 C 867.491 92.826, 872.132 89.485, 876 87.625 C 882.254 84.619, 882.993 84.500, 895.500 84.500 C 907.254 84.500, 908.969 84.733, 913.395 86.928 C 919.245 89.830, 924.264 94.636, 926.956 99.914 C 928.884 103.692, 931.554 116.779, 930.593 117.740 C 930.326 118.007, 924.731 117.663, 918.159 116.976 C 901.916 115.277, 878.145 116.177, 867.253 118.904 C 850.625 123.067, 838.752 131.661, 832.734 143.893 C 829.632 150.197, 829.500 150.955, 829.500 162.505 C 829.500 174.119, 829.617 174.784, 832.819 181.285 C 841.027 197.955, 857.836 207.022, 880.460 206.983 C 898.539 206.951, 914.765 201.411, 925.779 191.509 L 930.799 186.995 931.650 195.248 L 932.500 203.500 949.301 203.774 L 966.102 204.049 965.789 153.274 L 965.477 102.500 962.846 94.756 C 954.533 70.280, 933.545 56.820, 901.765 55.583 C 896.119 55.364, 889.925 55.376, 888 55.612 M 555 57.996 C 526.544 65.018, 505.875 86.390, 499.472 115.415 C 497.326 125.141, 497.884 145.359, 500.537 153.998 C 507.313 176.068, 524.894 194.828, 545.580 202.061 C 570.552 210.792, 599.988 207.591, 620.428 193.920 C 626.652 189.757, 640.777 176.352, 639.813 175.523 C 639.641 175.375, 634.397 171.616, 628.160 167.169 L 616.820 159.085 611.924 163.981 C 600.821 175.083, 580.938 180.588, 565.115 176.940 C 550.457 173.561, 538.086 161.884, 534.196 147.758 L 533.166 144.016 590.833 143.758 L 648.500 143.500 648.348 131 C 647.906 94.618, 626.746 66.503, 593.386 57.971 C 583.203 55.367, 565.608 55.378, 555 57.996 M 1057 58.142 C 1044.481 60.210, 1031.053 69.691, 1024.626 81 L 1021.500 86.500 1021.223 72.250 L 1020.945 58 1004.973 58 L 989 58 989 131 L 989 204 1005.419 204 L 1021.839 204 1022.233 164.750 C 1022.601 128.024, 1022.760 125.141, 1024.703 119.913 C 1032.127 99.942, 1044.463 91.106, 1067.250 89.439 L 1077 88.726 1077 73.470 C 1077 60.481, 1076.765 58.124, 1075.418 57.607 C 1073.235 56.769, 1063.620 57.049, 1057 58.142 M 1092 73 L 1092 88 1129.500 88 C 1150.125 88, 1167 88.242, 1167 88.539 C 1167 89.057, 1141.628 116.724, 1104.676 156.500 L 1087.025 175.500 1087.012 189.750 L 1087 204 1152.500 204 L 1218 204 1218 189.011 L 1218 174.022 1176.391 173.761 L 1134.782 173.500 1153.548 153 C 1163.870 141.725, 1182.594 121.611, 1195.157 108.302 L 1218 84.105 1218 71.052 L 1218 58 1155 58 L 1092 58 1092 73 M 560.666 86.017 C 551.162 89.379, 544.970 94.154, 539.240 102.540 C 537.521 105.055, 533 116.597, 533 118.468 C 533 118.761, 551.261 119, 573.579 119 L 614.159 119 613.497 115.750 C 611.114 104.057, 603.064 93.624, 592.331 88.319 C 582.588 83.504, 570.297 82.610, 560.666 86.017 M 224.624 88.048 C 197.662 94.815, 183.248 124.907, 195.294 149.279 C 203.728 166.346, 217.695 174.606, 236.818 173.838 C 245.805 173.477, 247.417 173.098, 254.187 169.752 C 263.440 165.179, 270.864 157.621, 275.299 148.259 C 278.297 141.929, 278.500 140.802, 278.500 130.500 C 278.500 120.198, 278.297 119.071, 275.299 112.741 C 270.896 103.448, 263.431 95.816, 254.353 91.330 C 247.833 88.108, 246.071 87.690, 237.779 87.400 C 232.675 87.222, 226.756 87.513, 224.624 88.048 M 725.770 89.210 C 714.488 93.470, 705.197 102.863, 700.794 114.459 C 698.885 119.485, 698.500 122.432, 698.500 132 C 698.500 142.865, 698.677 143.873, 701.701 150.259 C 716.381 181.249, 758.691 183.446, 776.398 154.137 C 790.069 131.509, 781.582 100.912, 758.712 90.377 C 750.155 86.436, 734.577 85.884, 725.770 89.210 M 886.182 141.119 C 870.237 143.771, 861.630 152.750, 863.275 165.017 C 865.526 181.793, 894.092 186.788, 914.042 173.894 C 923.710 167.645, 930.944 154.060, 929.818 144.265 C 929.513 141.609, 929.224 141.475, 922.500 140.874 C 912.293 139.962, 892.328 140.096, 886.182 141.119" stroke="none" fill="#ffffff" fill-rule="evenodd"/>
</svg>
